<svg xmlns="http://www.w3.org/2000/svg" xmlns:xlink="http://www.w3.org/1999/xlink" viewBox="0 0 1920.35 1080.65"><defs><linearGradient id="linear-gradient" y1="494.22" x2="916.08" y2="494.22" gradientUnits="userSpaceOnUse"><stop offset="0" stop-color="#fff" stop-opacity="0"/><stop offset="0.09" stop-color="#fff" stop-opacity="0.05"/><stop offset="0.26" stop-color="#fff" stop-opacity="0.19"/><stop offset="0.49" stop-color="#fff" stop-opacity="0.42"/><stop offset="0.77" stop-color="#fff" stop-opacity="0.72"/><stop offset="1" stop-color="#fff"/></linearGradient><linearGradient id="linear-gradient-2" x1="687.07" y1="1080.3" x2="687.07" y2="0.3" gradientUnits="userSpaceOnUse"><stop offset="0.11" stop-color="#fff"/><stop offset="0.72" stop-color="#fff" stop-opacity="0"/></linearGradient><linearGradient id="linear-gradient-3" x1="1140.07" y1="326.92" x2="1140.07" y2="1.76" gradientUnits="userSpaceOnUse"><stop offset="0" stop-color="#fff" stop-opacity="0.6"/><stop offset="1" stop-color="#fff" stop-opacity="0"/></linearGradient><linearGradient id="linear-gradient-4" x1="1196.7" y1="306.06" x2="2008.13" y2="774.54" xlink:href="#linear-gradient-2"/><linearGradient id="linear-gradient-5" x1="1597.57" y1="279.56" x2="1920.35" y2="279.56" gradientUnits="userSpaceOnUse"><stop offset="0.18" stop-color="#fff" stop-opacity="0"/><stop offset="1" stop-color="#fff" stop-opacity="0.5"/></linearGradient><linearGradient id="linear-gradient-6" y1="811.46" x2="916.08" y2="811.46" gradientUnits="userSpaceOnUse"><stop offset="0.17" stop-color="#fff"/><stop offset="0.56" stop-color="#fff" stop-opacity="0"/></linearGradient><linearGradient id="linear-gradient-7" x1="458.06" y1="85.43" x2="753.3" y2="85.43" gradientUnits="userSpaceOnUse"><stop offset="0" stop-color="#fff" stop-opacity="0.3"/><stop offset="0.19" stop-color="#fff" stop-opacity="0.35"/><stop offset="0.55" stop-color="#fff" stop-opacity="0.49"/><stop offset="1" stop-color="#fff" stop-opacity="0.7"/></linearGradient><linearGradient id="linear-gradient-8" x1="915.73" y1="368.53" x2="1799.67" y2="368.53" xlink:href="#linear-gradient-6"/><linearGradient id="linear-gradient-9" x1="1373.4" y1="861.29" x2="1920.35" y2="861.29" gradientUnits="userSpaceOnUse"><stop offset="0.06" stop-color="#fff"/><stop offset="1" stop-color="#fff" stop-opacity="0"/></linearGradient><linearGradient id="linear-gradient-10" y1="325.51" x2="458.41" y2="325.51" gradientUnits="userSpaceOnUse"><stop offset="0" stop-color="#fff" stop-opacity="0.3"/><stop offset="0.12" stop-color="#fff" stop-opacity="0.35"/><stop offset="0.35" stop-color="#fff" stop-opacity="0.49"/><stop offset="0.65" stop-color="#fff" stop-opacity="0.72"/><stop offset="1" stop-color="#fff"/></linearGradient></defs><title>terraform_pattern</title><g id="Layer_2" data-name="Layer 2"><g id="Pattern"><path d="M915.91,132.79.18,661.51M915.91,143.58.18,672.3M915.91,154.36.18,683.08M915.91,165.15.18,693.87M915.91,175.93.18,704.65M915.91,186.72.18,715.44M915.91,197.5.18,726.22M915.91,208.29.18,737M915.91,219.07.18,747.79M915.91,229.86.18,758.58M915.91,240.64.18,769.36M915.91,251.43.18,780.15M915.91,262.21.18,790.93M915.91,273,.18,801.72M915.91,283.78.18,812.5M915.91,294.57.18,823.29M915.91,305.35.18,834.07M915.91,316.14.18,844.86M915.91,326.92.18,855.64" style="fill:none;stroke-miterlimit:10;stroke-width:0.7000000000000001px;stroke:url(#linear-gradient)"/><path d="M458.24.3v1080M467.58.3v1080M476.92.3v1080M486.26.3v1080M495.6.3v1080M504.94.3v1080M514.28.3v1080M523.62.3v1080M533,.3v1080M542.3.3v1080M551.64.3v1080M561,.3v1080M570.32.3v1080M579.66.3v1080M589,.3v1080M598.34.3v1080M607.68.3v1080M617,.3v1080M626.36.3v1080M635.7.3v1080M645,.3v1080M654.38.3v1080M663.72.3v1080M673.06.3v1080M682.4.3v1080M691.74.3v1080M701.08.3v1080M710.42.3v1080M719.76.3v1080M729.11.3v1080M738.45.3v1080M747.79.3v1080M757.13.3v1080M766.47.3v1080M775.81.3v1080M785.15.3v1080M794.49.3v1080M803.83.3v1080M813.17.3v1080M822.51.3v1080M831.85.3v1080M841.19.3v1080M850.53.3v1080M859.87.3v1080M869.21.3v1080M878.55.3v1080M887.89.3v1080M897.23.3v1080M906.57.3v1080M915.91.3v1080" style="fill:none;stroke-miterlimit:10;stroke-width:0.7000000000000001px;stroke:url(#linear-gradient-2)"/><path d="M915.91,1.76V326.92M925.25,1.76V321.53M934.59,1.76V316.14M943.93,1.76v309m9.34-309V305.35M962.61,1.76V300M972,1.76V294.57M981.29,1.76V289.17M990.63,1.76v282m9.34-282V278.39m9.34-276.63V273m9.34-271.24V267.6M1028,1.76V262.21m9.34-260.45V256.82m9.34-255.06V251.43M1056,1.76V246m9.34-244.27V240.64m9.34-238.88V235.25M1084,1.76v228.1m9.34-228.1v222.7m9.34-222.7V219.07m9.34-217.31V213.68m9.34-211.92V208.28m9.34-206.52V202.89m9.34-201.13V197.5m9.34-195.74V192.11m9.34-190.35v185m9.34-185V181.32m9.34-179.56V175.93m9.34-174.17V170.54m9.34-168.78V165.14m9.34-163.38v158m9.34-158v152.6m9.34-152.6V149m9.34-147.21V143.57m9.34-141.81V138.18m9.35-136.42v131m9.34-131V127.4m9.34-125.64V122m9.34-120.24V116.61m9.34-114.85V111.22m9.34-109.46V105.83M1308.2,1.76v98.67m9.34-98.67V95m9.34-93.28V89.65m9.34-87.89v82.5m9.34-82.5v77.1m9.34-77.1V73.47m9.34-71.71V68.08" style="fill:none;stroke-miterlimit:10;stroke-width:0.7000000000000001px;stroke:url(#linear-gradient-3)"/><path d="M1373.58.3v1080M1382.92.3v1080M1392.26.3v1080M1401.6.3v1080M1410.94.3v1080M1420.28.3v1080M1429.62.3v1080M1439,.3v1080M1448.3.3v1080M1457.64.3v1080M1467,.3v1080M1476.32.3v1080M1485.66.3v1080M1495,.3v1080M1504.34.3v1080M1513.68.3v1080M1523,.3v1080M1532.36.3v1080M1541.7.3v1080M1551,.3v1080M1560.38.3v1080M1569.72.3v1080M1579.06.3v1080M1588.4.3v1080M1597.74.3v1080M1607.08.3v1080M1616.42.3v1080M1625.76.3v1080M1635.1.3v1080M1644.44.3v1080M1653.78.3v1080M1663.12.3v1080M1672.46.3v1080M1681.8.3v1080M1691.14.3v1080M1700.48.3v1080M1709.82.3v1080M1719.16.3v1080M1728.5.3v1080M1737.84.3v1080M1747.18.3v1080M1756.52.3v1080M1765.86.3v1080M1775.21.3v1080M1784.55.3v1080M1793.89.3v1080M1803.23.3v1080M1812.57.3v1080M1821.91.3v1080M1831.25.3v1080" style="fill:none;stroke-miterlimit:10;stroke-width:0.7000000000000001px;stroke:url(#linear-gradient-4)"/><path d="M1855.25.3,1597.74,149m0,10.78L1873.93.3m18.68,0L1597.74,170.55m0,10.78L1911.29.3M1920.18,6,1597.74,192.12m0,10.78L1920.18,16.74m0,10.79L1597.74,213.69m0,10.78L1920.18,38.31m0,10.79L1597.74,235.26m0,10.78L1920.18,59.88m0,10.79L1597.74,256.83m0,10.78L1920.18,81.45m0,10.79L1597.74,278.4m0,10.78L1920.18,103m0,10.79L1597.74,300m0,10.78,322.44-186.16m0,10.79L1597.74,321.54m0,10.78,322.44-186.16m0,10.79L1597.74,343.11m0,10.78,322.44-186.16m0,10.79L1597.74,364.68m0,10.78L1920.18,189.3m0,10.79L1597.74,386.25m0,10.78,322.44-186.16m0,10.79L1597.74,407.82m0,10.78,322.44-186.16m0,10.79L1597.74,429.39m0,10.78L1920.18,254m0,10.79L1597.74,451m0,10.78,322.44-186.16m0,10.79L1597.74,472.53m0,10.78,322.44-186.16m0,10.79L1597.74,494.1m0,10.78,322.44-186.16m0,10.79L1597.74,515.67m0,10.78L1920.18,340.3m0,10.78L1597.74,537.24m0,10.78,322.44-186.15M1597.74,558.81l322.44-186.16" style="fill:none;stroke-miterlimit:10;stroke-width:0.7000000000000001px;stroke:url(#linear-gradient-5)"/><path d="M1373.58,688.23,694.48,1080.3m18.68,0L1373.58,699m0,10.79L731.84,1080.3m18.68,0,623.06-359.72m0,10.79L769.2,1080.3m18.68,0,585.7-338.15m0,10.79-567,327.36m18.68,0,548.34-316.58m0,10.79L843.92,1080.3m18.68,0,511-295m0,10.79L881.29,1080.3m18.68,0,473.61-273.44m0,10.79L918.65,1080.3m18.68,0,436.25-251.87m0,10.79L956,1080.3m18.68,0L1373.58,850m0,10.79L993.37,1080.3m18.68,0,361.53-208.73m0,10.79L1030.73,1080.3m18.68,0,324.17-187.16m0,10.79L1068.09,1080.3m18.68,0,286.81-165.59m0,10.79-268.13,154.8m18.68,0,249.45-144m0,10.79L1142.81,1080.3m18.68,0,212.09-122.45m0,10.79L1180.17,1080.3m18.68,0,174.73-100.88m0,10.79-156,90.09m18.68,0L1373.58,1001m0,10.79-118.69,68.52m18.68,0,100-57.74m0,10.79-81.33,47m18.68,0,62.65-36.17m0,10.79-44,25.38m18.68,0,25.29-14.6" style="fill:none;stroke:#fff;stroke-linecap:round;stroke-linejoin:round;stroke-width:0.7000000000000001px"/><path d="M915.91,542.62.18,1071.46M915.91,553.41,3.53,1080.3M915.91,564.19,22.21,1080.3m18.67,0L915.91,575m0,10.78L59.56,1080.3m18.67,0L915.91,596.55m0,10.78-819,473m18.67,0L915.91,618.12m0,10.78L134.26,1080.3m18.67,0,763-440.61m0,10.78L171.61,1080.3m18.68,0,725.62-419m0,10.78L209,1080.3m18.68,0L915.91,682.83m0,10.78L246.31,1080.3m18.68,0L915.91,704.4m0,10.78L283.66,1080.3m18.68,0L915.91,726m0,10.78L321,1080.3" style="fill:none;stroke-miterlimit:10;stroke-width:0.7000000000000001px;stroke:url(#linear-gradient-6)"/><path d="M472.92.3,458.24,8.78m0,10.78L491.6.3m18.68,0-52,30.05m0,10.78L529,.3m18.68,0-89.4,51.62m0,10.78L566.32.3M585,.3,458.24,73.49m0,10.78L603.68.3m18.68,0L458.24,95.06m0,10.78L641,.3m18.68,0L458.24,116.63m0,10.78L678.4.3m18.68,0L458.24,138.2m0,10.78L715.76.3m18.68,0L458.24,159.77M753.12.3,458.24,170.56" style="fill:none;stroke-miterlimit:10;stroke-width:0.7000000000000001px;stroke:url(#linear-gradient-7)"/><path d="M1481.63.3,915.91,326.92M1500.31.3,915.91,337.71m0,10.78L1519,.3m18.68,0-621.76,359m0,10.78L1556.35.3M1575,.3,915.91,380.85m0,10.78L1593.71.3m18.68,0L915.91,402.42m0,10.78L1631.07.3m18.68,0L915.91,424m0,10.78L1668.43.3m18.68,0L915.91,445.56m0,10.78L1705.79.3m18.68,0L915.91,467.13m0,10.78L1743.15.3m18.68,0L915.91,488.7m0,10.78L1780.51.3m18.68,0-883.28,510m0,10.78L1799.49,10.92m0,10.78L915.91,531.84M1799.49,32.49,915.91,542.62M1799.49,43.27,915.91,553.41M1799.49,54.06,915.91,564.19M1799.49,64.84,915.91,575M1799.49,75.63,915.91,585.76M1799.49,86.41,915.91,596.55M1799.49,97.2,915.91,607.33M1799.49,108,915.91,618.12m883.58-499.35L915.91,628.9m883.58-499.35L915.91,639.69m883.58-499.35L915.91,650.47m883.58-499.35L915.91,661.26m883.58-499.35L915.91,672m883.58-499.35L915.91,682.83m883.58-499.35L915.91,693.61m883.58-499.35L915.91,704.4m883.58-499.35L915.91,715.18m883.58-499.35L915.91,726m0,10.78,883.58-510.13" style="fill:none;stroke-miterlimit:10;stroke-width:0.7000000000000001px;stroke:url(#linear-gradient-8)"/><path d="M1373.58,957.85l546.6-315.57m0,10.78-546.6,315.58m0,10.78,546.6-315.57m0,10.78-546.6,315.58m0,10.78,546.6-315.57m0,10.78-546.6,315.58m0,10.78L1920.18,707m0,10.78-546.6,315.58m0,10.78,546.6-315.57m0,10.78-546.6,315.58m0,10.78,546.6-315.57m-546.6,326.36,546.6-315.58M1385.65,1080.3l534.53-308.6m0,10.78L1404.33,1080.3m18.68,0,497.17-287m-478.49,287,478.49-276.25M1460.37,1080.3l459.81-265.46M1479.05,1080.3l441.13-254.68M1497.73,1080.3l422.45-243.89" style="fill:none;stroke-miterlimit:10;stroke-width:0.7000000000000001px;stroke:url(#linear-gradient-9)"/><path d="M.18,240.89,416.88.3M.18,251.67,435.56.3m18.68,0L.18,262.46M458.24,8.78.18,273.24M458.24,19.56.18,284m0,10.78L458.24,30.35m0,10.78L.18,305.6m0,10.78L458.24,51.92m0,10.78L.18,327.17M.18,338,458.24,73.49m0,10.78L.18,348.74m0,10.78L458.24,95.06m0,10.78L.18,370.31m0,10.78L458.24,116.63m0,10.78L.18,391.88m0,10.78L458.24,138.2m0,10.78L.18,413.45m0,10.78L458.24,159.77m0,10.79L.18,435m0,10.78L458.24,181.34m0,10.78L.18,456.59m0,10.78L458.24,202.91m0,10.79L.18,478.16m0,10.78L458.24,224.48m0,10.79L.18,499.73m0,10.78L458.24,246.05m0,10.79L.18,521.3m0,10.78L458.24,267.62m0,10.79L.18,542.87m0,10.78L458.24,289.19m0,10.79L.18,564.44m0,10.78L458.24,310.76m0,10.79L.18,586m0,10.78L458.24,332.33m0,10.79L.18,607.58m0,10.78L458.24,353.9m0,10.79L.18,629.15m0,10.78L458.24,375.47M.18,650.72,458.24,386.26" style="fill:none;stroke-miterlimit:10;stroke-width:0.7000000000000001px;stroke:url(#linear-gradient-10)"/></g></g></svg>
